<svg width="24" height="24" viewBox="0 0 24 24" fill="none" xmlns="http://www.w3.org/2000/svg">
<path d="M24 24.0003V15.2103C24 10.8903 23.07 7.59033 18.03 7.59033C15.6 7.59033 13.98 8.91033 13.32 10.1703H13.26V7.98033H8.48999V24.0003H13.47V16.0503C13.47 13.9503 13.86 11.9403 16.44 11.9403C18.99 11.9403 19.02 14.3103 19.02 16.1703V23.9703H24V24.0003Z" fill="white"/>
<path d="M0.389404 7.98096H5.36941V24.001H0.389404V7.98096Z" fill="white"/>
<path d="M2.88 0C1.29 0 0 1.29 0 2.88C0 4.47 1.29 5.79 2.88 5.79C4.47 5.79 5.76 4.47 5.76 2.88C5.76 1.29 4.47 0 2.88 0Z" fill="white"/>
</svg>
