<svg width="50" height="34" viewBox="0 0 50 34" fill="none" xmlns="http://www.w3.org/2000/svg">
<g clip-path="url(#clip0_315_4245)">
<g filter="url(#filter0_d_315_4245)">
<path d="M22.1322 26.914L16.1181 19.7217H20.2535C25.5507 19.7217 29.8449 15.3112 29.8449 9.87048C29.8449 4.42406 25.5461 0.00878906 20.2433 0.00878906H2.39255C2.39255 3.64075 5.25941 6.58527 8.79557 6.58527H20.3613C22.1273 6.58527 23.5586 8.05534 23.5586 9.86913C23.5586 11.6829 22.1273 13.153 20.3613 13.153H2.39255L18.359 32.2544C20.3166 34.5963 23.8432 34.6044 25.811 32.2713L43.6269 11.0782V27.5272C43.6269 31.0933 46.4415 33.9841 49.9136 33.9841L50.0066 3.97737C50.0178 0.404498 45.6933 -1.25195 43.4241 1.4559L22.1322 26.914Z" fill="#FA8A16"/>
</g>
</g>
<defs>
<filter id="filter0_d_315_4245" x="-32.9075" y="-35.2912" width="118.214" height="104.607" filterUnits="userSpaceOnUse" color-interpolation-filters="sRGB">
<feFlood flood-opacity="0" result="BackgroundImageFix"/>
<feColorMatrix in="SourceAlpha" type="matrix" values="0 0 0 0 0 0 0 0 0 0 0 0 0 0 0 0 0 0 127 0" result="hardAlpha"/>
<feMorphology radius="5" operator="dilate" in="SourceAlpha" result="effect1_dropShadow_315_4245"/>
<feOffset/>
<feGaussianBlur stdDeviation="15.15"/>
<feComposite in2="hardAlpha" operator="out"/>
<feColorMatrix type="matrix" values="0 0 0 0 0.980392 0 0 0 0 0.541176 0 0 0 0 0.0862745 0 0 0 0.3 0"/>
<feBlend mode="normal" in2="BackgroundImageFix" result="effect1_dropShadow_315_4245"/>
<feBlend mode="normal" in="SourceGraphic" in2="effect1_dropShadow_315_4245" result="shape"/>
</filter>
<clipPath id="clip0_315_4245">
<rect width="50" height="34" fill="white"/>
</clipPath>
</defs>
</svg>
