<svg width="30" height="30" viewBox="0 0 30 30" fill="none" xmlns="http://www.w3.org/2000/svg">
<path d="M25.0557 4.16895C25.7808 3.89904 26.6896 3.90719 27.3516 4.54395C27.9202 5.09117 28.0719 5.8797 27.9688 6.68457L27.9092 7.03027L24.2871 24.002L24.2842 24.0156H24.2832C24.1181 24.7398 23.7566 25.4869 22.999 25.8301C22.2378 26.1748 21.4472 25.9448 20.8242 25.5977L20.7695 25.5674L20.7197 25.5312L15.877 21.9854L13.8203 23.9512L13.8193 23.9502C13.6864 24.0825 13.4676 24.3049 13.1768 24.4727C12.8421 24.6656 12.4635 24.7656 12.0205 24.7656H10.9463L11.0225 23.6943L11.4199 18.1104L11.4482 17.707L11.749 17.4375L15.7617 13.834L9.84082 17.5391L9.45117 17.7822L9.01367 17.6465L3.57031 15.9531V15.9521C3.19079 15.8344 2.81282 15.656 2.51855 15.3809C2.20969 15.0919 1.95832 14.6547 2.00586 14.1143C2.05065 13.6065 2.34216 13.222 2.63672 12.9639C2.93695 12.7009 3.32261 12.4919 3.75195 12.3252L3.75684 12.3232L25.0469 4.17285L25.0557 4.16895Z" stroke="white" stroke-width="2"/>
</svg>
